<?xml version="1.0" standalone="no"?>
<!DOCTYPE svg PUBLIC "-//W3C//DTD SVG 20010904//EN"
 "http://www.w3.org/TR/2001/REC-SVG-20010904/DTD/svg10.dtd">
<svg version="1.0" xmlns="http://www.w3.org/2000/svg"
 width="800.000000pt" height="800.000000pt" viewBox="0 0 800.000000 800.000000"
 preserveAspectRatio="xMidYMid meet">
<metadata>
Created by potrace 1.11, written by Peter Selinger 2001-2013
</metadata>
<g transform="translate(0.000000,800.000000) scale(0.100000,-0.100000)"
fill="#000000" stroke="none">
<path d="M3847 7994 c-1 -1 -58 -5 -126 -9 -68 -4 -131 -8 -140 -10 -9 -1 -43
-6 -76 -9 -154 -18 -467 -81 -600 -122 -426 -130 -720 -263 -1055 -477 -93
-59 -264 -180 -286 -201 -6 -6 -26 -22 -44 -36 -135 -100 -406 -360 -542 -520
-330 -389 -563 -789 -735 -1264 -65 -178 -145 -480 -167 -631 -4 -22 -10 -65
-16 -95 -5 -30 -11 -80 -15 -111 -3 -31 -7 -65 -9 -75 -10 -53 -19 -249 -20
-409 0 -308 23 -546 79 -805 9 -41 20 -97 25 -123 24 -119 106 -380 180 -567
51 -128 183 -401 239 -492 22 -37 41 -70 41 -72 0 -8 159 -245 218 -324 164
-222 412 -486 623 -663 137 -115 313 -249 328 -249 6 0 11 -4 11 -8 0 -5 19
-19 41 -33 23 -13 52 -31 64 -39 204 -133 511 -285 756 -373 121 -44 334 -112
381 -121 13 -3 73 -16 133 -30 61 -13 130 -27 155 -31 25 -3 52 -8 61 -11 19
-5 56 -11 138 -20 30 -3 63 -7 73 -9 96 -19 556 -26 743 -12 299 23 616 86
935 187 327 103 741 311 1040 524 78 55 248 183 260 196 3 3 43 39 90 80 654
578 1100 1353 1269 2205 17 83 32 168 35 190 3 22 10 74 15 115 30 225 33 721
6 891 -2 13 -6 48 -9 77 -72 646 -363 1368 -760 1885 -34 44 -70 92 -81 107
-73 99 -256 295 -410 439 -333 310 -728 564 -1180 756 -293 125 -726 238
-1040 271 -27 3 -60 7 -72 9 -67 11 -546 27 -556 19z m472 -308 c25 -2 67 -7
95 -11 28 -3 69 -8 91 -11 22 -3 76 -11 120 -19 44 -8 94 -17 110 -19 17 -3
84 -19 150 -36 66 -17 127 -33 135 -35 137 -33 501 -178 649 -257 77 -41 173
-96 189 -106 13 -9 -56 -219 -268 -817 -89 -251 -201 -571 -203 -580 -2 -5
-12 -37 -24 -70 -12 -33 -101 -287 -198 -565 -97 -278 -192 -548 -210 -600
-18 -52 -68 -194 -110 -315 -42 -121 -87 -249 -100 -285 -13 -36 -60 -171
-105 -300 -45 -129 -94 -271 -110 -315 -38 -107 -162 -460 -215 -615 -24 -69
-68 -197 -99 -285 -31 -88 -75 -215 -99 -282 -23 -67 -45 -117 -48 -110 -6 10
-283 766 -347 947 -61 173 -216 600 -227 625 -7 17 -150 410 -318 875 -168
465 -459 1268 -647 1784 -187 517 -339 941 -337 943 10 10 184 99 262 135 400
182 836 296 1240 324 44 3 81 7 83 9 5 5 493 -3 541 -9z m-2533 -758 c-5 -36
-14 -96 -21 -143 -7 -47 -13 -91 -30 -220 -9 -66 -18 -131 -20 -145 -2 -14 -7
-50 -10 -80 -3 -30 -8 -66 -10 -80 -2 -14 -6 -47 -10 -75 -5 -50 -11 -100 -20
-165 -19 -149 -26 -201 -30 -245 -3 -27 -10 -84 -15 -125 -6 -41 -12 -97 -15
-125 -3 -27 -7 -61 -10 -75 -2 -14 -7 -53 -11 -87 -3 -35 -7 -73 -9 -85 -2
-13 -6 -50 -9 -83 -4 -33 -9 -76 -12 -95 -2 -19 -7 -55 -9 -79 -2 -24 -7 -60
-9 -80 -3 -20 -12 -94 -21 -166 -22 -183 -22 -187 -50 -415 -13 -113 -27 -223
-30 -245 -3 -22 -12 -96 -20 -165 -9 -69 -18 -138 -21 -154 -2 -15 -7 -51 -10
-80 -6 -58 -9 -84 -17 -141 -6 -37 -16 -119 -32 -250 -3 -27 -8 -59 -10 -70
-2 -11 -7 -45 -10 -76 -3 -31 -7 -65 -9 -75 -2 -11 -7 -44 -10 -74 -4 -30 -9
-71 -11 -90 -2 -19 -7 -57 -10 -85 -4 -27 -8 -61 -10 -75 -2 -14 -9 -65 -15
-115 -6 -49 -13 -103 -15 -120 -3 -16 -12 -86 -20 -155 -28 -222 -34 -273 -40
-310 -3 -14 -7 -47 -10 -75 -3 -27 -7 -61 -9 -75 -2 -14 -9 -69 -16 -123 -14
-113 -12 -112 -94 -3 -411 547 -661 1204 -723 1901 -15 165 -8 619 11 735 3
14 7 48 11 75 7 62 45 278 50 286 2 3 7 21 10 40 8 52 62 242 101 359 203 604
594 1184 1074 1594 160 137 195 165 203 165 4 1 5 -14 3 -31z m4614 -124 c542
-466 933 -1075 1134 -1764 33 -113 77 -301 91 -390 4 -25 9 -54 11 -65 2 -11
6 -40 9 -65 3 -25 8 -54 10 -65 26 -129 27 -739 1 -872 -3 -12 -7 -47 -11 -77
-4 -45 -47 -271 -71 -376 -21 -94 -118 -399 -150 -467 -7 -17 -14 -34 -14 -38
0 -17 -153 -333 -203 -420 -89 -155 -219 -350 -295 -443 -42 -51 -47 -46 -56
48 -4 36 -8 75 -10 85 -2 11 -7 47 -11 80 -4 33 -8 71 -10 85 -2 14 -6 52 -10
85 -4 33 -9 68 -11 78 -2 10 -6 48 -9 85 -3 37 -8 74 -10 82 -3 8 -7 40 -10
70 -5 51 -11 97 -20 160 -2 14 -9 68 -15 120 -6 52 -13 109 -15 125 -2 17 -13
109 -25 205 -11 96 -22 189 -25 205 -5 42 -23 180 -30 240 -3 28 -8 64 -10 80
-2 17 -7 53 -10 80 -3 28 -8 64 -10 80 -2 17 -7 53 -10 80 -3 28 -8 64 -10 80
-3 17 -7 50 -10 75 -2 25 -7 65 -10 90 -10 78 -13 103 -20 165 -4 33 -9 68
-10 77 -2 9 -7 48 -10 85 -4 37 -9 76 -11 87 -2 10 -6 44 -9 75 -3 31 -8 67
-10 81 -2 14 -7 43 -9 65 -3 22 -8 63 -11 90 -3 28 -8 61 -10 75 -2 14 -6 52
-10 85 -3 33 -7 71 -10 85 -2 14 -6 45 -9 70 -7 62 -46 377 -52 420 -12 89
-21 160 -44 355 -11 94 -22 186 -25 205 -2 19 -7 55 -10 80 -3 25 -8 61 -10
80 -3 19 -7 58 -11 85 -3 28 -7 61 -9 75 -2 14 -7 54 -10 90 -4 36 -9 74 -11
85 -3 11 -7 43 -9 70 -5 46 -11 93 -20 155 -2 14 -7 49 -10 79 l-7 55 43 -34
c24 -19 87 -71 139 -116z m-3865 -1519 c-8 -60 -11 -87 -19 -140 -3 -22 -8
-60 -11 -85 -3 -25 -8 -63 -10 -85 -8 -60 -13 -95 -20 -150 -3 -27 -12 -97
-20 -155 -8 -58 -17 -123 -19 -145 -3 -22 -7 -62 -10 -90 -4 -27 -8 -60 -10
-72 -3 -12 -7 -46 -10 -75 -4 -29 -8 -62 -10 -73 -2 -11 -7 -49 -11 -85 -4
-36 -8 -72 -10 -80 -1 -8 -6 -42 -10 -75 -4 -32 -9 -68 -11 -79 -2 -11 -6 -43
-9 -71 -2 -29 -7 -68 -9 -86 -7 -44 -26 -187 -31 -219 -2 -14 -6 -52 -10 -85
-4 -32 -8 -67 -10 -77 -2 -9 -6 -43 -10 -75 -3 -32 -8 -67 -10 -78 -2 -11 -7
-42 -10 -70 -3 -27 -12 -102 -21 -165 -22 -171 -23 -181 -29 -230 -7 -56 -13
-105 -25 -195 -5 -38 -12 -88 -14 -110 -7 -54 -16 -125 -21 -155 -4 -27 -15
-118 -21 -165 -4 -40 -14 -114 -19 -145 -2 -14 -9 -63 -15 -110 -6 -47 -13
-95 -15 -107 l-5 -23 -311 2 -311 1 6 31 c4 17 13 76 21 131 21 148 25 177 31
205 2 14 6 46 9 73 3 26 7 60 10 75 2 15 7 47 10 71 3 23 7 55 9 70 6 34 14
101 21 171 3 30 7 66 10 80 5 29 12 83 20 155 8 78 15 137 20 175 3 19 7 58
10 85 3 28 12 100 20 160 8 61 17 133 20 160 7 62 13 119 25 215 5 41 12 98
15 125 2 28 9 88 15 135 6 47 28 234 50 415 22 182 42 346 45 365 4 31 17 132
31 245 8 63 15 118 19 145 2 14 7 54 11 90 4 36 8 67 9 70 1 7 18 139 20 165
1 11 5 43 9 70 10 75 13 102 41 320 14 110 28 211 30 225 2 14 6 50 10 81 3
31 8 67 10 80 3 12 7 47 11 78 3 31 7 67 9 81 9 76 16 128 20 150 2 14 6 50
10 80 3 30 9 68 12 84 4 23 54 -105 240 -615 221 -608 234 -647 228 -694z
m3439 1130 c3 -38 8 -81 10 -95 2 -14 7 -50 11 -80 13 -106 14 -115 19 -150 2
-19 7 -62 11 -95 4 -33 8 -71 11 -85 2 -14 6 -50 9 -80 3 -30 8 -66 10 -80 3
-14 7 -45 10 -70 4 -41 119 -970 131 -1065 2 -22 7 -51 9 -65 2 -14 7 -54 11
-90 3 -36 8 -73 9 -82 2 -9 6 -41 9 -70 4 -29 8 -69 11 -88 2 -19 7 -60 11
-90 3 -30 8 -63 9 -72 2 -9 7 -48 10 -85 4 -37 9 -70 10 -73 2 -3 6 -41 10
-85 4 -44 8 -82 10 -85 2 -3 6 -34 10 -70 3 -36 8 -77 11 -91 2 -15 6 -47 9
-70 10 -92 17 -145 20 -169 2 -14 11 -83 20 -155 9 -71 18 -148 21 -170 2 -22
7 -58 9 -80 3 -22 7 -56 10 -75 2 -19 7 -53 9 -75 3 -22 10 -76 16 -120 5 -44
12 -98 14 -120 3 -22 8 -65 11 -95 4 -30 8 -70 10 -88 2 -18 6 -45 9 -60 3
-15 8 -54 11 -87 3 -33 8 -71 10 -85 2 -14 6 -46 10 -73 6 -56 15 -132 20
-167 2 -14 7 -54 10 -90 l7 -66 -1122 3 c-618 1 -1125 5 -1128 8 -3 3 18 69
46 147 27 79 71 204 97 278 64 187 180 519 215 615 40 113 81 232 220 630 66
193 128 368 136 389 9 22 28 78 44 125 16 47 54 158 85 246 31 88 61 171 65
185 4 14 34 97 65 185 31 88 63 178 70 200 7 22 30 87 50 145 21 58 48 136 61
174 14 38 42 120 64 182 22 63 58 165 79 227 22 61 84 240 139 397 55 157 124
353 152 435 67 191 70 199 74 194 2 -2 6 -35 10 -74z m-3173 -1790 c5 -11 135
-369 290 -795 154 -426 317 -874 361 -995 44 -121 100 -274 123 -340 24 -66
60 -165 80 -220 20 -55 41 -111 45 -125 5 -14 23 -63 40 -110 44 -119 110
-302 110 -306 0 -2 -329 -4 -731 -4 l-731 0 7 57 c7 67 10 90 25 193 5 41 12
95 15 120 3 25 7 61 10 80 2 19 7 55 10 80 3 25 8 56 10 70 2 14 7 50 10 80 4
30 8 66 10 80 3 22 11 83 20 157 2 13 6 40 9 60 3 21 8 61 11 88 3 28 7 61 10
75 2 14 7 48 10 75 3 28 8 64 10 80 6 39 16 121 21 165 2 19 6 51 8 70 3 19 8
55 11 80 4 25 8 56 10 70 2 14 6 50 10 80 4 30 8 66 10 80 2 14 6 43 9 65 3
22 8 58 11 80 2 22 7 63 10 90 3 28 8 61 10 75 7 46 50 374 60 460 6 52 9 74
30 228 8 62 15 118 16 125 0 7 5 -1 11 -18 5 -16 14 -39 19 -50z m1581 -3207
c1220 -2 2218 -5 2218 -7 0 -16 -256 -240 -394 -345 -353 -268 -808 -492
-1231 -607 -111 -30 -387 -87 -454 -95 -31 -3 -67 -7 -81 -9 -42 -5 -142 -15
-200 -20 -66 -6 -419 -6 -475 0 -22 2 -78 6 -125 10 -231 18 -584 94 -829 180
-204 71 -257 92 -415 169 -298 144 -580 331 -825 546 -101 88 -181 165 -181
173 0 10 72 12 430 10 190 -1 1343 -3 2562 -5z"/>
</g>
</svg>
